<svg width="48" height="48" viewBox="0 0 48 48" fill="none" xmlns="http://www.w3.org/2000/svg">
<path d="M38.9089 4.94543H3.49069C1.96341 4.94543 0.727051 6.1818 0.727051 7.70907V30.6182C0.727051 32.1454 1.96341 33.4545 3.49069 33.4545H7.92705L6.25432 37.3091C5.96341 37.8909 6.61796 38.5454 7.2725 38.2545L15.7089 33.4545H38.9816C40.5089 33.4545 41.7452 32.2182 41.7452 30.6909V7.70907C41.6725 6.1818 40.4361 4.94543 38.9089 4.94543ZM9.67251 12.2182H12.4361L13.3089 9.59998C13.5998 8.87271 14.618 8.87271 14.8361 9.59998L15.7089 12.2182H18.4725C19.2725 12.2182 19.5634 13.2363 18.9816 13.6727L16.727 15.2727L17.5998 17.8909C17.818 18.6182 17.018 19.2 16.3634 18.7636L14.1089 17.1636L11.8543 18.7636C11.2725 19.2 10.3998 18.6182 10.618 17.8909L11.4907 15.2727L9.23614 13.6727C8.5816 13.1636 8.87251 12.2182 9.67251 12.2182ZM24.2907 29.6H7.70887C7.34523 29.6 6.9816 29.3091 6.9816 28.8727C6.9816 28.4363 7.34523 28.1454 7.70887 28.1454H24.218C24.6543 28.1454 24.9452 28.4363 24.9452 28.8727C25.018 29.3091 24.6543 29.6 24.2907 29.6ZM34.6907 25.3818H7.70887C7.34523 25.3818 6.9816 25.0182 6.9816 24.6545C6.9816 24.2909 7.34523 23.9273 7.70887 23.9273H34.6907C35.0543 23.9273 35.418 24.2909 35.418 24.6545C35.418 25.0182 35.127 25.3818 34.6907 25.3818ZM33.2361 13.6727L30.9816 15.2727L31.8543 17.8909C32.1452 18.6182 31.1998 19.2727 30.618 18.7636L28.3634 17.1636L26.1089 18.7636C25.5271 19.2 24.6543 18.6182 24.8725 17.8909L25.7452 15.2727L23.4907 13.6727C22.8361 13.2363 23.1998 12.2182 23.9998 12.2182H26.7634L27.6361 9.59998C27.8543 8.87271 28.9452 8.87271 29.1634 9.59998L30.0361 12.2182H32.727C33.5271 12.2182 33.818 13.1636 33.2361 13.6727Z" fill="white"/>
<path d="M47.2728 22.9818V37.8182C47.2728 38.9818 46.3274 39.8545 45.2364 39.8545H42.7637L43.6364 41.8909C44.0728 42.4727 43.4183 43.3454 42.691 42.9091L37.3092 39.8545H22.2546C21.091 39.8545 20.2183 38.9091 20.2183 37.8182V34.9091H38.9092C41.2364 34.9091 43.1274 33.0182 43.1274 30.6909V20.9454H45.1637C46.3274 20.9454 47.2728 21.8182 47.2728 22.9818Z" fill="white"/>
</svg>
