<svg width="48" height="48" viewBox="0 0 48 48" fill="none" xmlns="http://www.w3.org/2000/svg">
<path d="M42.0166 18.9375H6.01657L6.02107 44.25C6.02107 44.6478 6.1791 45.0294 6.46041 45.3107C6.74171 45.592 7.12324 45.75 7.52107 45.75H19.5211C19.9189 45.75 20.3004 45.592 20.5817 45.3107C20.863 45.0294 21.0211 44.6478 21.0211 44.25V40.5H27.0211V44.25C27.0211 44.6478 27.1791 45.0294 27.4604 45.3107C27.7417 45.592 28.1232 45.75 28.5211 45.75H40.5211C40.9189 45.75 41.3004 45.592 41.5817 45.3107C41.863 45.0294 42.0211 44.6478 42.0211 44.25L42.0166 18.9375ZM17.2546 35.406C17.2546 35.6389 17.1622 35.8622 16.9976 36.027C16.8331 36.1918 16.6099 36.2846 16.3771 36.285H12.2656C12.0328 36.2842 11.8099 36.1913 11.6454 36.0266C11.481 35.8619 11.3885 35.6387 11.3881 35.406V31.7295C11.3881 31.245 11.7826 30.8505 12.2656 30.8505H16.3771C16.8616 30.8505 17.2546 31.245 17.2546 31.7295V35.406ZM17.2546 27.069C17.2546 27.3019 17.1622 27.5252 16.9976 27.69C16.8331 27.8548 16.6099 27.9476 16.3771 27.948H12.2656C12.0328 27.9472 11.8099 27.8543 11.6454 27.6896C11.481 27.5249 11.3885 27.3017 11.3881 27.069V23.3925C11.3881 22.908 11.7826 22.5135 12.2656 22.5135H16.3771C16.8616 22.5135 17.2546 22.908 17.2546 23.3925V27.069ZM26.9536 35.406C26.9532 35.639 26.8604 35.8624 26.6957 36.0271C26.5309 36.1919 26.3076 36.2846 26.0746 36.285H21.9646C21.7314 36.2846 21.5079 36.1919 21.3429 36.0272C21.1779 35.8625 21.0849 35.6391 21.0841 35.406V31.7295C21.0841 31.245 21.4801 30.8505 21.9646 30.8505H26.0746C26.5591 30.8505 26.9536 31.245 26.9536 31.7295V35.406ZM26.9536 27.069C26.9532 27.302 26.8604 27.5254 26.6957 27.6901C26.5309 27.8549 26.3076 27.9476 26.0746 27.948H21.9646C21.7314 27.9476 21.5079 27.8549 21.3429 27.6902C21.1779 27.5255 21.0849 27.3021 21.0841 27.069V23.3925C21.0841 22.908 21.4801 22.5135 21.9646 22.5135H26.0746C26.5591 22.5135 26.9536 22.908 26.9536 23.3925V27.069ZM36.6496 35.406C36.6496 35.6391 36.557 35.8627 36.3921 36.0275C36.2273 36.1924 36.0037 36.285 35.7706 36.285H31.6591C31.4262 36.2846 31.203 36.1918 31.0385 36.027C30.874 35.8622 30.7816 35.6389 30.7816 35.406V31.7295C30.7816 31.245 31.1746 30.8505 31.6591 30.8505H35.7706C36.2566 30.8505 36.6496 31.245 36.6496 31.7295V35.406ZM36.6496 27.069C36.6496 27.3021 36.557 27.5257 36.3921 27.6905C36.2273 27.8554 36.0037 27.948 35.7706 27.948H31.6591C31.4262 27.9476 31.203 27.8548 31.0385 27.69C30.874 27.5252 30.7816 27.3019 30.7816 27.069V23.3925C30.7816 22.908 31.1746 22.5135 31.6591 22.5135H35.7706C36.2566 22.5135 36.6496 22.908 36.6496 23.3925V27.069ZM45.0241 9.906L45.0181 14.439C45.0177 14.8366 44.8595 15.2177 44.5782 15.4987C44.2969 15.7797 43.9156 15.9375 43.5181 15.9375H4.51807C4.32096 15.9375 4.12578 15.8987 3.9437 15.8232C3.76161 15.7477 3.59618 15.6371 3.45688 15.4976C3.31757 15.3582 3.20711 15.1926 3.13182 15.0105C3.05652 14.8283 3.01787 14.6331 3.01807 14.436L3.02407 9.903C3.02407 9.903 2.96407 8.6535 4.52407 8.4045H13.9306C15.8986 4.8765 19.7446 2.625 24.0136 2.625C28.2916 2.625 32.1301 4.875 34.0981 8.4045H43.5256C45.0496 8.535 45.0241 9.906 45.0241 9.906Z" fill="white"/>
</svg>
