<svg width="40" height="50" viewBox="0 0 40 50" fill="none" xmlns="http://www.w3.org/2000/svg">
<g clip-path="url(#clip0_73_14)">
<path d="M19.9074 0.0010376C8.94216 0.0010376 0.0078193 8.93073 1.55303e-05 19.9083C-0.00973918 29.9669 4.57394 32.7989 18.8939 49.5294C19.0203 49.6775 19.1774 49.7966 19.3543 49.8782C19.5311 49.9597 19.7234 50.002 19.9181 50.002C20.1128 50.002 20.3052 49.9597 20.482 49.8782C20.6589 49.7966 20.8159 49.6775 20.9423 49.5294C35.2154 32.7237 39.8128 30.0733 39.8128 19.9337C39.8138 8.94053 30.8844 0.0010376 19.9074 0.0010376ZM19.9074 36.2452C11.057 36.2452 3.85703 29.0372 3.85703 20.1768C3.85703 11.3165 11.057 4.10847 19.9074 4.10847C28.7579 4.10847 35.9568 11.3165 35.9568 20.1768C35.9568 29.0372 28.7579 36.2432 19.9074 36.2432V36.2452Z" fill="white"/>
<path d="M19.9074 7.03809C12.6704 7.03809 6.78345 12.9316 6.78345 20.1768C6.78345 27.4219 12.6704 33.3135 19.9074 33.3135C27.1445 33.3135 33.0304 27.4189 33.0304 20.1748C33.0304 12.9307 27.1435 7.03809 19.9074 7.03809Z" fill="white"/>
</g>
<defs>
<clipPath id="clip0_73_14">
<rect width="39.8148" height="50" fill="white"/>
</clipPath>
</defs>
</svg>
