<svg width="16" height="16" viewBox="0 0 16 16" fill="none" xmlns="http://www.w3.org/2000/svg">
<path d="M12.7 4H2.3C1.58203 4 1 4.59695 1 5.33333V10.6667C1 11.403 1.58203 12 2.3 12H12.7C13.418 12 14 11.403 14 10.6667V5.33333C14 4.59695 13.418 4 12.7 4Z" stroke="#555555" stroke-width="1.29958" stroke-linecap="round" stroke-linejoin="round"/>
<path d="M7.5 10C8.32843 10 9 9.32843 9 8.5C9 7.67157 8.32843 7 7.5 7C6.67157 7 6 7.67157 6 8.5C6 9.32843 6.67157 10 7.5 10Z" stroke="#555555" stroke-width="1.29958" stroke-linecap="round" stroke-linejoin="round"/>
<path d="M4 8H4.00583M10.9942 8H11" stroke="#555555" stroke-width="1.29958" stroke-linecap="round" stroke-linejoin="round"/>
</svg>
