<svg width="1350" height="946" viewBox="0 0 1350 946" fill="none" xmlns="http://www.w3.org/2000/svg">
<path opacity="0.25" d="M1348.84 398.441C1340.95 282.724 1299.79 184.041 1229.83 112.963C1165.57 47.5846 1085.11 7.82184 1003.49 1.09175C929.282 -5.15761 850.75 15.513 776.538 60.7694C739.771 83.5902 705.717 110.523 675.029 141.049C644.341 110.523 610.287 83.5902 573.52 60.7694C499.308 15.513 420.776 -5.15761 346.564 1.09175C265.15 7.95919 184.697 47.5846 120.224 112.963C50.2644 184.041 9.10761 282.724 1.22001 398.441C-4.30032 491.695 8.95235 585.109 40.1825 673.138C86.0162 792.455 164.714 896.303 267.139 972.626C499.926 1142.46 849.723 1142.46 1082.51 972.626C1184.94 896.303 1263.63 792.455 1309.47 673.138C1340.84 585.138 1354.23 491.723 1348.84 398.441ZM730.582 419.043C725.064 429.217 717.128 437.874 707.474 444.246C697.82 450.618 686.75 454.509 675.237 455.577C663.723 454.509 652.646 450.618 642.992 444.246C633.338 437.874 625.402 429.217 619.884 419.043C600.748 381.959 627.637 312.667 675.237 257.933C722.837 312.941 749.718 382.234 730.582 419.318V419.043ZM1242.04 648.073C1162.55 868.311 947.118 1022.48 717.28 1022.97H633.193C403.698 1022.48 187.915 868.311 108.422 648.073C67.2693 533.936 34.2151 303.464 171.94 163.506C224.203 110.283 288.535 78.1424 352.733 72.8545C460.142 63.8581 560.965 126.627 631.13 198.873C606.471 224.617 585.678 253.811 569.401 285.54C537.508 348.309 532.504 407.369 555.275 452.076C566.658 473.582 583.346 491.814 603.755 505.037C624.164 518.26 647.616 526.033 671.874 527.618H677.634C701.892 526.033 725.344 518.26 745.753 505.037C766.163 491.814 782.851 473.582 794.234 452.076C817.005 407.369 812.001 348.309 780.108 285.54C763.831 253.811 743.037 224.617 718.379 198.873C788.544 126.627 889.367 63.8581 996.776 72.8545C1061.04 78.1424 1125.31 110.283 1177.58 163.506C1316.26 303.739 1283.27 534.211 1242.04 648.348V648.073Z" fill="url(#paint0_linear_492_371)"/>
<defs>
<linearGradient id="paint0_linear_492_371" x1="675" y1="138.344" x2="675" y2="986.722" gradientUnits="userSpaceOnUse">
<stop stop-color="white"/>
<stop offset="1" stop-color="#0C73FE"/>
</linearGradient>
</defs>
</svg>
