<svg width="474" height="50" viewBox="0 0 474 50" fill="none" xmlns="http://www.w3.org/2000/svg">
<path d="M16.0289 21.5265L40.7347 48.2193H30.9981L12.121 27.8188L11.26 26.8253L7.21964 31.3955V48.2193H0V0.993532H7.21964V26.6928L29.276 3.04682L31.1306 0.993532H33.2501H33.1839H35.1709L16.0289 21.5265Z" fill="white"/>
<path d="M53.7235 30.7994V45.1724H79.2241L76.9058 48.2193H46.6363V0.993532H79.8202L76.9058 3.90788H53.7235V19.7381H78.8929L76.5747 22.6525H53.7235V26.2292H53.6573V30.7994H53.7235Z" fill="white"/>
<path d="M169.934 46.4971L170.663 48.2193H162.913L162.516 47.3582L158.873 38.4164L158.807 38.1515H134.366L134.3 38.4164L132.445 42.788C132.224 43.3178 131.783 43.5607 131.12 43.5166C130.591 43.4724 130.016 43.4062 129.398 43.3178C129.133 43.2295 128.891 43.0971 128.67 42.9204C128.493 42.7438 128.361 42.5451 128.272 42.3243C128.228 42.1035 128.25 41.8607 128.339 41.5957L143.771 3.64294L144.897 0.993532H151.057L151.388 1.85459L169.934 46.4971ZM135.956 34.3099H157.151L156.952 33.78L146.156 8.34564L136.154 33.78L135.956 34.3099ZM137.082 46.4971C143.043 46.4971 148.43 44.8192 153.243 41.4633L155.627 43.7153C149.931 47.6894 143.506 49.6764 136.353 49.6764C128.228 49.6764 121.45 48.3959 116.019 45.8348C110.587 43.2295 106.569 39.9178 103.964 35.8995H93.7637V48.2855H86.6766V1.05977H103.235C106.724 1.05977 110.013 1.83251 113.104 3.378C116.24 4.92349 118.757 7.04302 120.655 9.73658C122.554 12.386 123.503 15.2562 123.503 18.3472V18.6121C123.503 20.9083 122.885 23.1382 121.649 25.3019C120.457 27.4655 118.911 29.3201 117.012 30.8656C115.114 32.4111 113.016 33.6254 110.72 34.5086C111.956 36.4073 113.833 38.1957 116.35 39.8736C118.911 41.5516 121.627 42.9425 124.497 44.0464C127.367 45.1062 130.127 45.8127 132.776 46.166C134.189 46.3867 135.624 46.4971 137.082 46.4971ZM103.235 33.1839C107.209 33.1839 110.345 31.815 112.641 29.0773C114.981 26.2954 116.151 22.8291 116.151 18.6783V18.3472C116.151 15.6094 115.643 13.1587 114.628 10.995C113.656 8.83137 112.177 7.08717 110.19 5.76247C108.203 4.43776 105.885 3.77541 103.235 3.77541H93.7637V33.1839H103.235Z" fill="white"/>
<path d="M164.945 0.861059H207.203L206.209 3.77541H189.651V48.2193H182.497V3.77541H165.938L164.945 0.861059Z" fill="white"/>
<path d="M219.509 0.993532V48.2193H212.289V0.993532H219.509Z" fill="white"/>
<path d="M267.702 0.993532H270.616V48.2193H266.244L232.862 12.386V48.2193H229.948V0.993532H233.061L267.702 38.0853V0.993532Z" fill="white"/>
<path d="M331.715 1.126V4.7027L299.989 45.3049H331.715L330.059 48.2193H291.378V44.7088L323.237 4.04035H293.63L291.378 1.126H331.715Z" fill="white"/>
<path d="M357.239 0C361.39 0 365.32 1.10392 369.029 3.31176C372.782 5.47545 375.785 8.45603 378.037 12.2535C380.289 16.0069 381.415 20.0693 381.415 24.4408C381.415 28.8123 380.289 32.8968 378.037 36.6943C375.785 40.4918 372.782 43.4724 369.029 45.6361C365.32 47.7998 361.39 48.8816 357.239 48.8816C354.104 48.8816 351.057 48.2413 348.099 46.9608C345.184 45.6802 342.623 43.9581 340.415 41.7944C338.252 39.5866 336.508 36.9813 335.183 33.9787C333.858 30.9319 333.196 27.7746 333.196 24.507C333.196 21.1953 333.858 18.016 335.183 14.9692C336.508 11.9223 338.252 9.31709 340.415 7.15341C342.623 4.98972 345.184 3.26761 348.099 1.98706C351.057 0.662353 354.104 0 357.239 0ZM361.015 45.6361C364.282 45.062 367.042 43.5607 369.294 41.1321C371.59 38.6593 373.158 35.6566 373.997 32.1241C374.836 28.5474 374.902 24.8161 374.195 20.9303C373.136 15.0575 370.663 10.4431 366.777 7.08717C362.935 3.73125 358.498 2.47278 353.464 3.31176C350.196 3.84165 347.436 5.29882 345.184 7.68329C342.977 10.0678 341.475 13.0042 340.68 16.4926C339.886 19.9368 339.841 23.6239 340.548 27.5539C341.608 33.4709 344.036 38.1736 347.834 41.662C351.631 45.1504 356.025 46.4751 361.015 45.6361Z" fill="white"/>
<path d="M427.406 0.993532H430.32V48.2193H425.949L392.566 12.386V48.2193H389.652V0.993532H392.765L427.406 38.0853V0.993532Z" fill="white"/>
<path d="M447.903 30.7994V45.1724H473.404L471.086 48.2193H440.816V0.993532H474L471.086 3.90788H447.903V19.7381H473.073L470.754 22.6525H447.903V26.2292H447.837V30.7994H447.903Z" fill="white"/>
</svg>
