<svg width="228" height="24" viewBox="0 0 228 24" fill="none" xmlns="http://www.w3.org/2000/svg">
<path d="M7.71012 10.3545L19.5939 23.1941H14.9105L5.83038 13.3812L5.4162 12.9033L3.47274 15.1016V23.1941H0V0.477901H3.47274V12.8396L14.0821 1.46556L14.9742 0.477901H15.9937H15.9619H16.9177L7.71012 10.3545Z" fill="#111111"/>
<path d="M25.8417 14.8149V21.7285H38.1078L36.9927 23.1941H22.4327V0.477901H38.3945L36.9927 1.87974H25.8417V9.49428H37.9485L36.8334 10.8961H25.8417V12.6166H25.8098V14.8149H25.8417Z" fill="#111111"/>
<path d="M81.7405 22.3657L82.091 23.1941H78.3634L78.1722 22.7799L76.4199 18.4788L76.3881 18.3514H64.6317L64.5999 18.4788L63.7078 20.5816C63.6016 20.8364 63.3892 20.9533 63.0706 20.932C62.8157 20.9108 62.5396 20.8789 62.2422 20.8364C62.1148 20.794 61.998 20.7302 61.8918 20.6453C61.8068 20.5603 61.7431 20.4647 61.7006 20.3585C61.6794 20.2523 61.69 20.1355 61.7325 20.0081L69.1558 1.7523L69.6975 0.477901H72.6604L72.8197 0.892082L81.7405 22.3657ZM65.3964 16.5035H75.5916L75.496 16.2486L70.3028 4.01436L65.4919 16.2486L65.3964 16.5035ZM65.938 22.3657C68.8054 22.3657 71.3967 21.5586 73.7118 19.9444L74.8588 21.0276C72.1188 22.9392 69.0284 23.895 65.5875 23.895C61.6794 23.895 58.419 23.279 55.8065 22.0471C53.194 20.794 51.2612 19.201 50.008 17.2681H45.1015V23.2259H41.6925V0.509761H49.6575C51.3355 0.509761 52.9179 0.88146 54.4047 1.62486C55.9127 2.36826 57.1234 3.38778 58.0367 4.68342C58.95 5.95782 59.4067 7.33842 59.4067 8.82522V8.95266C59.4067 10.0571 59.1093 11.1298 58.5146 12.1705C57.9411 13.2113 57.1977 14.1034 56.2844 14.8468C55.3711 15.5902 54.3622 16.1743 53.2577 16.5991C53.8524 17.5124 54.7551 18.3726 55.9658 19.1797C57.1977 19.9868 58.504 20.6559 59.8846 21.1869C61.2652 21.6967 62.5927 22.0365 63.8671 22.2064C64.5468 22.3126 65.2371 22.3657 65.938 22.3657ZM49.6575 15.9619C51.5691 15.9619 53.0772 15.3034 54.1816 13.9865C55.3074 12.6484 55.8702 10.9811 55.8702 8.98452V8.82522C55.8702 7.50834 55.626 6.32952 55.1374 5.28876C54.6702 4.248 53.9586 3.40902 53.0028 2.77182C52.047 2.13462 50.9319 1.81602 49.6575 1.81602H45.1015V15.9619H49.6575Z" fill="#111111"/>
<path d="M79.3406 0.41418H99.6673L99.1894 1.81602H91.2244V23.1941H87.7835V1.81602H79.8185L79.3406 0.41418Z" fill="#111111"/>
<path d="M105.587 0.477901V23.1941H102.114V0.477901H105.587Z" fill="#111111"/>
<path d="M128.768 0.477901H130.17V23.1941H128.067L112.01 5.95782V23.1941H110.608V0.477901H112.105L128.768 18.3195V0.477901Z" fill="#111111"/>
<path d="M159.559 0.54162V2.26206L144.298 21.7922H159.559L158.763 23.1941H140.157V21.5055L155.481 1.94346H141.24L140.157 0.54162H159.559Z" fill="#111111"/>
<path d="M171.837 0C173.833 0 175.723 0.531 177.508 1.593C179.313 2.63376 180.757 4.06746 181.841 5.8941C182.924 7.6995 183.465 9.65358 183.465 11.7563C183.465 13.8591 182.924 15.8238 181.841 17.6504C180.757 19.4771 179.313 20.9108 177.508 21.9515C175.723 22.9923 173.833 23.5127 171.837 23.5127C170.329 23.5127 168.863 23.2047 167.44 22.5887C166.038 21.9728 164.806 21.1444 163.744 20.1037C162.703 19.0417 161.864 17.7885 161.227 16.3442C160.59 14.8786 160.271 13.36 160.271 11.7882C160.271 10.1952 160.59 8.66592 161.227 7.20036C161.864 5.7348 162.703 4.48164 163.744 3.44088C164.806 2.40012 166.038 1.57176 167.44 0.955801C168.863 0.3186 170.329 0 171.837 0ZM173.653 21.9515C175.224 21.6754 176.552 20.9533 177.635 19.7851C178.74 18.5956 179.494 17.1513 179.897 15.4521C180.301 13.7317 180.333 11.9369 179.993 10.0678C179.483 7.24284 178.294 5.02326 176.424 3.40902C174.577 1.79478 172.442 1.18944 170.021 1.593C168.449 1.84788 167.121 2.5488 166.038 3.69576C164.976 4.84272 164.254 6.25518 163.872 7.93314C163.489 9.58986 163.468 11.3634 163.808 13.2538C164.318 16.0999 165.486 18.362 167.312 20.0399C169.139 21.7179 171.252 22.3551 173.653 21.9515Z" fill="#111111"/>
<path d="M205.588 0.477901H206.99V23.1941H204.887L188.829 5.95782V23.1941H187.428V0.477901H188.925L205.588 18.3195V0.477901Z" fill="#111111"/>
<path d="M215.447 14.8149V21.7285H227.713L226.598 23.1941H212.038V0.477901H228L226.598 1.87974H215.447V9.49428H227.554L226.439 10.8961H215.447V12.6166H215.415V14.8149H215.447Z" fill="#111111"/>
</svg>
