<svg width="195" height="40" viewBox="0 0 195 40" fill="none" xmlns="http://www.w3.org/2000/svg">
<g clip-path="url(#clip0_256_1551)">
<path d="M53.1037 25.39V25.7747C53.1037 27.1036 53.1119 28.4331 53.0993 29.7627C53.0912 30.6357 52.5304 31.2865 51.6923 31.449C50.9164 31.5969 50.1153 31.1893 49.823 30.4585C49.7246 30.2041 49.6746 29.9331 49.6756 29.6598C49.6668 24.2689 49.665 18.8776 49.67 13.4858C49.67 12.5385 50.1718 11.8852 51.0287 11.6979C51.9025 11.5074 52.5661 11.8763 52.9732 12.7773C52.9814 12.7963 52.9939 12.8135 53.0178 12.8547C54.9071 11.6554 56.9408 11.3493 59.0873 11.9481C60.7609 12.4154 62.0525 13.449 63.0593 14.8579C64.9512 17.5068 64.7636 21.3392 62.6798 23.8484C60.2447 26.7804 56.2251 27.3392 53.1037 25.39ZM57.006 23.0598C57.5203 23.0646 58.0304 22.9661 58.5068 22.77C58.9832 22.5739 59.4164 22.2842 59.7814 21.9175C60.1465 21.5508 60.436 21.1145 60.6333 20.6337C60.8306 20.153 60.9318 19.6375 60.9309 19.1169C60.9368 18.5965 60.8407 18.08 60.6481 17.5974C60.4554 17.1148 60.1702 16.6756 59.8088 16.3054C59.4474 15.9351 59.017 15.641 58.5426 15.4402C58.0682 15.2393 57.5591 15.1357 57.0449 15.1354C54.8494 15.1277 53.1056 16.8776 53.1043 19.0935C53.1008 19.6138 53.1991 20.1296 53.3938 20.6112C53.5884 21.0928 53.8754 21.5306 54.2383 21.8992C54.6011 22.2678 55.0325 22.5599 55.5076 22.7587C55.9827 22.9575 56.492 23.059 57.006 23.0573V23.0598Z" fill="white"/>
<path d="M77.1606 25.343C74.0932 27.336 69.9468 26.8668 67.4496 23.7925C65.2698 21.1068 65.2454 17.1963 67.3969 14.4706C68.5313 13.0166 70.1616 12.0442 71.9678 11.7441C73.774 11.4439 75.6258 11.8378 77.1599 12.8484C77.1838 12.8027 77.2089 12.7588 77.2296 12.7125C77.6122 11.87 78.2959 11.5106 79.1509 11.6966C79.9814 11.8795 80.5002 12.5347 80.5008 13.4293C80.5042 17.2067 80.5042 20.9836 80.5008 24.7601C80.5008 25.642 79.9432 26.3303 79.112 26.5023C78.2809 26.6744 77.5921 26.3011 77.2258 25.4719C77.2089 25.4363 77.1888 25.3995 77.1606 25.343ZM73.1516 23.0573C73.6658 23.0603 74.1755 22.9602 74.6512 22.7627C75.1269 22.5653 75.5593 22.2744 75.9234 21.9068C76.2874 21.5393 76.5759 21.1024 76.7722 20.6213C76.9685 20.1403 77.0688 19.6247 77.0671 19.1042C77.0712 18.5839 76.9735 18.0678 76.7795 17.5859C76.5855 17.1039 76.2992 16.6657 75.9369 16.2964C75.5747 15.927 75.1438 15.634 74.669 15.4342C74.1943 15.2344 73.6852 15.1318 73.1711 15.1322C72.6541 15.1266 72.1413 15.2254 71.6626 15.4227C71.1838 15.6201 70.7487 15.9121 70.3828 16.2816C70.0168 16.6511 69.7273 17.0908 69.5312 17.5749C69.335 18.059 69.2362 18.5779 69.2405 19.1011C69.2379 19.6215 69.3374 20.1374 69.533 20.6187C69.7287 21.1 70.0167 21.5373 70.3804 21.9052C70.7442 22.2732 71.1764 22.5644 71.652 22.7622C72.1277 22.9599 72.6374 23.0602 73.1516 23.0573Z" fill="white"/>
<path d="M162.229 12.8477C162.505 12.0623 163.044 11.6414 163.879 11.6604C164.82 11.6776 165.543 12.3957 165.555 13.3481C165.569 14.4274 165.559 15.5004 165.559 16.5766C165.559 19.2983 165.559 22.0202 165.559 24.7423C165.559 25.9728 164.497 26.7861 163.323 26.47C162.744 26.3138 162.427 25.889 162.229 25.3481C161.118 26.0779 159.833 26.4907 158.509 26.543C157.186 26.5953 155.873 26.2851 154.709 25.6452C153.545 25.0052 152.573 24.0592 151.896 22.9069C151.218 21.7546 150.861 20.4387 150.861 19.0979C150.861 17.7571 151.218 16.4412 151.896 15.2889C152.573 14.1366 153.545 13.1906 154.709 12.5506C155.873 11.9107 157.186 11.6005 158.509 11.6528C159.833 11.7051 161.117 12.1179 162.229 12.8477ZM158.218 23.0573C158.993 23.056 159.75 22.8221 160.393 22.3852C161.037 21.9484 161.537 21.3281 161.832 20.603C162.127 19.8779 162.203 19.0806 162.05 18.3119C161.897 17.5433 161.522 16.8378 160.973 16.2849C160.423 15.732 159.724 15.3565 158.964 15.2059C158.204 15.0554 157.416 15.1365 156.702 15.439C155.987 15.7415 155.377 16.2519 154.949 16.9055C154.521 17.5591 154.294 18.3265 154.297 19.1106C154.296 19.631 154.397 20.1465 154.594 20.6272C154.791 21.1079 155.08 21.5443 155.445 21.9113C155.81 22.2782 156.242 22.5684 156.718 22.7651C157.194 22.9618 157.704 23.0611 158.218 23.0573Z" fill="white"/>
<path d="M133.413 19.1119C133.41 20.583 132.976 22.0203 132.166 23.2419C131.357 24.4636 130.207 25.4148 128.863 25.9752C127.519 26.5356 126.042 26.68 124.617 26.3903C123.192 26.1005 121.884 25.3896 120.858 24.3473C119.832 23.305 119.135 21.9783 118.854 20.5349C118.573 19.0915 118.721 17.5962 119.28 16.2381C119.839 14.8801 120.783 13.7202 121.993 12.9053C123.203 12.0903 124.625 11.6569 126.078 11.6598C127.044 11.6579 128.001 11.8495 128.894 12.2237C129.786 12.5978 130.597 13.1471 131.279 13.8399C131.961 14.5326 132.5 15.3551 132.866 16.26C133.233 17.1648 133.418 18.1341 133.413 19.1119ZM126.056 23.0573C126.831 23.0591 127.589 22.8283 128.234 22.394C128.879 21.9598 129.382 21.3415 129.68 20.6176C129.978 19.8937 130.057 19.0966 129.907 18.3273C129.757 17.558 129.384 16.851 128.837 16.2959C128.29 15.7408 127.592 15.3626 126.833 15.209C126.073 15.0554 125.285 15.1334 124.569 15.4331C123.854 15.7328 123.242 16.2408 122.811 16.8927C122.381 17.5447 122.151 18.3112 122.151 19.0954C122.148 19.6158 122.246 20.1318 122.441 20.6134C122.636 21.095 122.924 21.5327 123.287 21.9012C123.65 22.2696 124.082 22.5615 124.557 22.76C125.033 22.9584 125.542 23.0595 126.056 23.0573Z" fill="white"/>
<path d="M104.813 26.5709C103.216 26.5233 101.677 26.2655 100.272 25.4515C99.9464 25.2639 99.6362 25.0501 99.3443 24.8122C98.601 24.2033 98.4781 23.1455 99.0451 22.4096C99.6479 21.6281 100.682 21.4808 101.458 22.0922C102.139 22.63 102.914 22.896 103.755 22.9938C104.725 23.1062 105.691 23.1208 106.63 22.7995C106.828 22.7352 107.016 22.6434 107.189 22.5265C107.658 22.1938 107.655 21.6649 107.14 21.4249C106.665 21.2144 106.168 21.0612 105.657 20.9684C104.679 20.7722 103.683 20.6611 102.709 20.4484C101.953 20.2772 101.248 19.9259 100.652 19.4236C98.7152 17.8204 98.7076 14.7512 100.628 13.0535C101.62 12.1779 102.801 11.7893 104.088 11.6928C106.161 11.5379 108.091 11.9309 109.76 13.2706C110.07 13.5163 110.291 13.8586 110.389 14.2445C110.486 14.6304 110.456 15.0382 110.301 15.4046C109.862 16.4382 108.591 16.75 107.672 16.0344C106.48 15.1074 105.143 14.969 103.732 15.2763C103.429 15.3514 103.146 15.4935 102.904 15.6922C102.497 16.016 102.544 16.5417 102.976 16.835C103.513 17.1976 104.136 17.2916 104.758 17.3544C105.857 17.4649 106.953 17.5792 107.993 17.9893C108.351 18.1321 108.699 18.2999 109.034 18.4916C111.458 19.8795 111.471 23.19 109.795 24.8281C108.873 25.7284 107.764 26.209 106.521 26.3989C105.957 26.4858 105.382 26.5163 104.813 26.5709Z" fill="white"/>
<path d="M138.852 12.4935C139.653 12.2395 140.387 11.922 141.154 11.7747C145.106 11.0128 148.843 14.0909 148.908 18.1614C148.944 20.3658 148.923 22.5709 148.915 24.7754C148.911 25.8116 148.177 26.5411 147.18 26.5354C146.205 26.5296 145.486 25.7906 145.486 24.7696C145.481 22.6382 145.491 20.5074 145.483 18.3766C145.476 16.7373 144.39 15.4503 142.799 15.1696C140.927 14.8388 139.13 16.3125 139.109 18.2306C139.085 20.4039 139.109 22.5773 139.098 24.75C139.093 25.9728 138.076 26.7709 136.924 26.4757C136.161 26.2801 135.67 25.6154 135.666 24.7614C135.663 22.6196 135.663 20.4782 135.666 18.3373C135.666 16.7017 135.661 15.0668 135.666 13.4319C135.671 12.195 136.737 11.3938 137.912 11.7309C138.29 11.8401 138.499 12.0147 138.852 12.4935Z" fill="white"/>
<path d="M86.6444 12.5233C87.3213 12.282 87.9517 11.9957 88.6116 11.8331C92.6262 10.8446 96.6125 13.9563 96.6853 18.1481C96.7242 20.3627 96.701 22.5785 96.6922 24.7944C96.6878 25.8103 95.9495 26.5373 94.9709 26.5347C93.9924 26.5322 93.2654 25.7982 93.2629 24.7823C93.2572 22.6516 93.2629 20.5201 93.2591 18.3893C93.2547 16.7385 92.157 15.435 90.5568 15.1652C88.6806 14.8477 86.9041 16.3233 86.8847 18.2496C86.8627 20.4084 86.8847 22.5747 86.8746 24.7373C86.8696 25.9906 85.817 26.8008 84.6522 26.4649C83.9314 26.2566 83.4478 25.6058 83.444 24.8071C83.4371 23.4249 83.444 22.0433 83.444 20.6611C83.444 18.256 83.444 15.8507 83.444 13.4452C83.444 12.202 84.4941 11.4027 85.6765 11.7309C86.1357 11.8547 86.438 12.1754 86.6444 12.5233Z" fill="white"/>
<path d="M187.07 20.8719C187.611 19.7792 188.123 18.7442 188.635 17.7093C189.473 16.0141 190.304 14.3144 191.152 12.6236C191.607 11.7169 192.558 11.3811 193.422 11.7938C194.296 12.2103 194.65 13.242 194.211 14.1525C193.696 15.223 193.162 16.2839 192.637 17.3487C190.49 21.6915 188.344 26.0342 186.198 30.3766C185.774 31.2319 185.126 31.5995 184.316 31.4522C183.176 31.2458 182.563 30.0839 183.056 29.0185C183.488 28.0839 183.956 27.1665 184.409 26.2414C184.603 25.8452 184.785 25.4433 184.999 25.0566C185.106 24.8592 185.099 24.7043 184.999 24.5042C183.301 21.0757 181.607 17.6456 179.918 14.2141C179.432 13.2255 179.801 12.1658 180.758 11.7595C181.61 11.3976 182.51 11.7512 182.96 12.6446C183.713 14.1366 184.451 15.635 185.194 17.1316C185.76 18.2698 186.326 19.4084 186.891 20.5474C186.94 20.6401 186.991 20.729 187.07 20.8719Z" fill="white"/>
<path d="M170.438 15.6414C170.022 15.6414 169.648 15.6414 169.275 15.6414C168.229 15.63 167.494 14.903 167.499 13.8884C167.504 12.8865 168.234 12.1741 169.269 12.1671C169.645 12.1671 170.018 12.1671 170.438 12.1671C170.438 11.7468 170.432 11.3417 170.438 10.9335C170.451 10.2185 170.751 9.66806 171.403 9.36393C172.054 9.05981 172.685 9.13473 173.252 9.58489C173.682 9.92648 173.861 10.4014 173.869 10.9449C173.875 11.3423 173.869 11.7398 173.869 12.1671C174.743 12.1671 175.585 12.1595 176.426 12.1716C176.664 12.17 176.902 12.2044 177.13 12.2738C177.894 12.5246 178.355 13.3233 178.239 14.1474C178.12 15.002 177.462 15.6135 176.596 15.6357C175.816 15.656 175.034 15.6414 174.252 15.642H173.89C173.882 15.7525 173.87 15.8433 173.87 15.9341C173.87 17.5582 173.87 19.1824 173.87 20.8065C173.866 20.9858 173.875 21.1652 173.899 21.343C174.073 22.4486 174.719 23.02 175.837 23.0573C176.107 23.0662 176.379 23.0528 176.652 23.0706C177.549 23.1296 178.215 23.8141 178.253 24.7049C178.291 25.6109 177.688 26.4325 176.803 26.51C175.263 26.6452 173.783 26.4204 172.508 25.4363C171.085 24.3379 170.479 22.8249 170.446 21.0611C170.416 19.3951 170.438 17.7284 170.438 16.0623V15.6414Z" fill="white"/>
<path d="M113.087 19.0827C113.087 17.1843 113.082 15.2865 113.087 13.3881C113.087 12.6668 113.437 12.129 114.072 11.8255C114.72 11.5157 115.358 11.6077 115.917 12.0655C116.36 12.4287 116.52 12.9297 116.519 13.4966C116.517 15.6058 116.517 17.715 116.519 19.8242C116.519 21.4693 116.526 23.1144 116.519 24.7595C116.512 25.9779 115.478 26.7823 114.338 26.4738C113.604 26.2744 113.091 25.5887 113.089 24.7779C113.084 22.8789 113.087 20.9811 113.087 19.0827Z" fill="white"/>
<path d="M114.817 6.72202C115.27 6.72637 115.703 6.91159 116.022 7.23737C116.341 7.56315 116.52 8.00316 116.52 8.46171C116.522 8.69178 116.479 8.92002 116.393 9.13284C116.306 9.34565 116.179 9.53869 116.017 9.70044C115.855 9.86218 115.663 9.98933 115.452 10.0743C115.241 10.1593 115.015 10.2003 114.787 10.195C113.818 10.1887 113.077 9.4198 113.087 8.4306C113.094 7.97204 113.279 7.53472 113.604 7.21445C113.928 6.89419 114.364 6.71711 114.817 6.72202Z" fill="white"/>
<path d="M27.6763 0.5H11.8418C5.30178 0.5 0 5.86699 0 12.4867V28.5133C0 35.1337 5.30178 40.5 11.8418 40.5H27.6763C34.2163 40.5 39.5187 35.1337 39.5187 28.5133V12.4867C39.5187 5.86699 34.2163 0.5 27.6763 0.5Z" fill="white"/>
<path d="M33.9479 16.0778C33.952 16.2563 33.9438 16.435 33.9234 16.6124C33.8897 17.0315 33.8236 17.4474 33.7258 17.8562C31.9989 25.2524 20.8076 32.7133 20.329 33.0308C20.25 33.0815 20.1584 33.1083 20.0649 33.1082C19.9714 33.1083 19.8798 33.0815 19.8008 33.0308C17.9743 31.7895 16.2229 30.4385 14.5562 28.9851L15.913 27.6067C17.1462 26.4079 18.1825 25.3844 19.0017 24.5749L20.0775 23.4956C21.6198 21.9344 22.5758 19.8776 22.7811 17.6797C22.9857 15.483 22.4276 13.2827 21.2028 11.4575C22.1654 10.2754 23.472 9.43108 24.9364 9.04476C26.4009 8.65847 27.9485 8.74979 29.3587 9.30571C30.7093 9.83581 31.8701 10.7666 32.689 11.9762C33.5065 13.1841 33.9453 14.6135 33.9479 16.0778Z" fill="#0C73FE"/>
<path d="M20.3196 12.846C19.9672 12.2193 19.5339 11.6428 19.0312 11.1317C18.2999 10.3896 17.431 9.80098 16.4744 9.39967C15.5175 8.99851 14.4917 8.79266 13.4559 8.79395C13.2418 8.79395 13.0296 8.8039 12.8192 8.82379H12.4592L12.2766 8.84855L12.0991 8.87903L11.9411 8.90888L11.788 8.94379C10.3067 9.26263 8.949 10.0104 7.88003 11.0962C6.40227 12.5946 5.57228 14.6253 5.57227 16.7425C5.57215 18.8598 6.40216 20.8905 7.88003 22.3889L8.86675 23.3876L10.8797 25.3851L12.0295 26.514L13.4459 27.9476L14.8623 26.514C16.1248 25.275 17.1527 24.2627 17.946 23.4771L19.0218 22.4035C20.2378 21.1711 21.0226 19.5703 21.2568 17.8447C21.4908 16.1197 21.1617 14.3644 20.3196 12.846ZM13.4459 19.4492C13.1322 19.4491 12.8217 19.3865 12.5319 19.2649C12.2422 19.1433 11.979 18.9652 11.7573 18.7406C11.5355 18.5162 11.3596 18.2497 11.2396 17.9564C11.1195 17.6632 11.0578 17.3488 11.0578 17.0314C11.0578 16.714 11.1195 16.3997 11.2396 16.1064C11.3596 15.8131 11.5355 15.5466 11.7573 15.3222C11.979 15.0977 12.2423 14.9197 12.532 14.7982C12.8217 14.6767 13.1323 14.6142 13.4459 14.6143C14.0785 14.6155 14.6847 14.8708 15.1314 15.3241C15.578 15.7773 15.8289 16.3913 15.8289 17.0314C15.8291 17.672 15.5783 18.2864 15.1314 18.74C14.6842 19.1925 14.0782 19.4475 13.4459 19.4492Z" fill="#FA742D"/>
<path d="M15.839 17.0314C15.8389 17.6717 15.588 18.2859 15.1414 18.7393C14.6943 19.1921 14.0884 19.4473 13.4559 19.4492C13.1423 19.4491 12.8317 19.3865 12.542 19.2649C12.2522 19.1433 11.989 18.9652 11.7673 18.7406C11.5455 18.5162 11.3696 18.2497 11.2496 17.9564C11.1296 17.6632 11.0678 17.3488 11.0679 17.0314C11.0678 16.714 11.1296 16.3996 11.2496 16.1064C11.3696 15.8131 11.5455 15.5466 11.7673 15.3222C11.989 15.0977 12.2523 14.9197 12.542 14.7982C12.8318 14.6767 13.1423 14.6142 13.4559 14.6143C14.0885 14.6155 14.6947 14.8708 15.1414 15.3241C15.5881 15.7773 15.8389 16.3913 15.839 17.0314Z" fill="white"/>
</g>
<defs>
<clipPath id="clip0_256_1551">
<rect width="195" height="40" fill="white"/>
</clipPath>
</defs>
</svg>
